<mxfile host="app.diagrams.net" modified="2022-12-06T14:46:09.608Z" agent="5.0 (X11; Ubuntu)" etag="WSi5W7vtYinyO9XYLluc" version="20.6.0" type="github">
  <diagram name="Page-1" id="822b0af5-4adb-64df-f703-e8dfc1f81529">
    <mxGraphModel dx="1348" dy="749" grid="1" gridSize="10" guides="1" tooltips="1" connect="1" arrows="1" fold="1" page="1" pageScale="1" pageWidth="1100" pageHeight="850" background="none" math="0" shadow="0">
      <root>
        <mxCell id="0" />
        <mxCell id="1" parent="0" />
        <mxCell id="0DKXUWI2B-4MRa7pfrqM-8" value="" style="rounded=0;whiteSpace=wrap;html=1;" vertex="1" parent="1">
          <mxGeometry x="410" y="550" width="350" height="279" as="geometry" />
        </mxCell>
        <mxCell id="0DKXUWI2B-4MRa7pfrqM-7" value="" style="shape=cylinder3;whiteSpace=wrap;html=1;boundedLbl=1;backgroundOutline=1;size=15;fillColor=#dae8fc;strokeColor=#6c8ebf;" vertex="1" parent="1">
          <mxGeometry x="900" y="10" width="320" height="540" as="geometry" />
        </mxCell>
        <mxCell id="0DKXUWI2B-4MRa7pfrqM-5" value="" style="rounded=0;whiteSpace=wrap;html=1;" vertex="1" parent="1">
          <mxGeometry x="1350" y="103.5" width="330.05" height="330" as="geometry" />
        </mxCell>
        <mxCell id="0DKXUWI2B-4MRa7pfrqM-3" value="&lt;div&gt;&lt;br&gt;&lt;/div&gt;&lt;div&gt;&lt;br&gt;&lt;/div&gt;&lt;div&gt;&lt;br&gt;&lt;/div&gt;&lt;div&gt;&lt;br&gt;&lt;/div&gt;&lt;div&gt;&lt;br&gt;&lt;/div&gt;&lt;div&gt;&lt;br&gt;&lt;/div&gt;&lt;div&gt;&lt;br&gt;&lt;/div&gt;&lt;div&gt;&lt;br&gt;&lt;/div&gt;&lt;div&gt;&lt;br&gt;&lt;/div&gt;&lt;div&gt;&lt;br&gt;&lt;/div&gt;&lt;div&gt;&lt;br&gt;&lt;/div&gt;&lt;div&gt;&lt;br&gt;&lt;/div&gt;&lt;div&gt;&lt;br&gt;&lt;/div&gt;&lt;div&gt;&lt;br&gt;&lt;/div&gt;&lt;div&gt;&lt;br&gt;&lt;/div&gt;&lt;div&gt;-&lt;span dir=&quot;ltr&quot; role=&quot;presentation&quot; style=&quot;left: 179.943px; top: 603.396px; font-size: 18.1818px; font-family: sans-serif; transform: scaleX(0.798389);&quot;&gt;network card&lt;/span&gt;&lt;/div&gt;" style="whiteSpace=wrap;html=1;aspect=fixed;" vertex="1" parent="1">
          <mxGeometry x="410" y="120" width="330" height="330" as="geometry" />
        </mxCell>
        <mxCell id="7d933b09d9755ecc-13" value="" style="ellipse;whiteSpace=wrap;html=1;rounded=0;shadow=0;comic=0;strokeWidth=1;fontFamily=Verdana;" parent="1" vertex="1">
          <mxGeometry x="500" y="270" width="142" height="94" as="geometry" />
        </mxCell>
        <mxCell id="7d933b09d9755ecc-5" value="" style="verticalLabelPosition=bottom;aspect=fixed;html=1;verticalAlign=top;strokeColor=none;shape=mxgraph.citrix.file_server;rounded=0;shadow=0;comic=0;fontFamily=Verdana;" parent="1" vertex="1">
          <mxGeometry x="1044.5" y="410" width="71" height="97" as="geometry" />
        </mxCell>
        <mxCell id="7d933b09d9755ecc-6" value="&lt;span dir=&quot;ltr&quot; role=&quot;presentation&quot; style=&quot;left: 139.943px; top: 709.911px; font-size: 14.944px; font-family: monospace; transform: scaleX(0.871733);&quot;&gt;VM 4&lt;/span&gt;&lt;span dir=&quot;ltr&quot; role=&quot;presentation&quot; style=&quot;left: 171.326px; top: 709.911px; font-size: 14.944px; font-family: monospace;&quot;&gt; &lt;/span&gt;&lt;span dir=&quot;ltr&quot; role=&quot;presentation&quot; style=&quot;left: 175.417px; top: 707.429px; font-size: 18.1818px; font-family: sans-serif; transform: scaleX(0.842092);&quot;&gt;(admin-client) &lt;/span&gt;" style="verticalLabelPosition=bottom;aspect=fixed;html=1;verticalAlign=top;strokeColor=none;shape=mxgraph.citrix.users;rounded=0;shadow=0;comic=0;fontFamily=Verdana;" parent="1" vertex="1">
          <mxGeometry x="529.95" y="282" width="82.09" height="70" as="geometry" />
        </mxCell>
        <mxCell id="7d933b09d9755ecc-9" value="" style="verticalLabelPosition=bottom;aspect=fixed;html=1;verticalAlign=top;strokeColor=none;shape=mxgraph.citrix.tower_server;rounded=0;shadow=0;comic=0;fontFamily=Verdana;" parent="1" vertex="1">
          <mxGeometry x="542.5" y="160" width="65" height="85" as="geometry" />
        </mxCell>
        <mxCell id="0DKXUWI2B-4MRa7pfrqM-2" value="" style="edgeStyle=orthogonalEdgeStyle;rounded=0;orthogonalLoop=1;jettySize=auto;html=1;entryX=0.345;entryY=0.062;entryDx=0;entryDy=0;entryPerimeter=0;" edge="1" parent="1" source="7d933b09d9755ecc-15" target="7d933b09d9755ecc-5">
          <mxGeometry relative="1" as="geometry" />
        </mxCell>
        <mxCell id="7d933b09d9755ecc-15" value="" style="ellipse;whiteSpace=wrap;html=1;rounded=0;shadow=0;comic=0;strokeWidth=1;fontFamily=Verdana;" parent="1" vertex="1">
          <mxGeometry x="958.25" y="212" width="220" height="140" as="geometry" />
        </mxCell>
        <mxCell id="7d933b09d9755ecc-16" value="&lt;div&gt;&lt;span dir=&quot;ltr&quot; role=&quot;presentation&quot; style=&quot;left: 130.853px; top: 454.197px; font-size: 18.1818px; font-family: monospace;&quot;&gt;&lt;/span&gt;&lt;span dir=&quot;ltr&quot; role=&quot;presentation&quot; style=&quot;left: 139.943px; top: 456.68px; font-size: 14.944px; font-family: monospace; transform: scaleX(0.871733);&quot;&gt;VM 1&lt;/span&gt;&lt;span dir=&quot;ltr&quot; role=&quot;presentation&quot; style=&quot;left: 171.326px; top: 456.68px; font-size: 14.944px; font-family: monospace;&quot;&gt; &lt;/span&gt;&lt;span dir=&quot;ltr&quot; role=&quot;presentation&quot; style=&quot;left: 175.417px; top: 454.197px; font-size: 18.1818px; font-family: sans-serif; transform: scaleX(0.83556);&quot;&gt;(gateway)&lt;/span&gt;&lt;/div&gt;&lt;div&gt;&lt;span dir=&quot;ltr&quot; role=&quot;presentation&quot; style=&quot;left: 175.417px; top: 454.197px; font-size: 18.1818px; font-family: sans-serif; transform: scaleX(0.83556);&quot;&gt; openBSD&lt;/span&gt;&lt;/div&gt;" style="verticalLabelPosition=bottom;aspect=fixed;html=1;verticalAlign=top;strokeColor=none;shape=mxgraph.citrix.users;rounded=0;shadow=0;comic=0;fontFamily=Verdana;" parent="1" vertex="1">
          <mxGeometry x="1036" y="241" width="64.5" height="55" as="geometry" />
        </mxCell>
        <mxCell id="7d933b09d9755ecc-23" style="rounded=0;html=1;labelBackgroundColor=none;startArrow=none;startFill=0;endArrow=block;endFill=1;strokeColor=#0000FF;strokeWidth=1;fontFamily=Verdana;fontSize=12" parent="1" source="7d933b09d9755ecc-13" target="7d933b09d9755ecc-15" edge="1">
          <mxGeometry relative="1" as="geometry" />
        </mxCell>
        <mxCell id="7d933b09d9755ecc-32" value="" style="ellipse;whiteSpace=wrap;html=1;rounded=0;shadow=0;comic=0;strokeWidth=1;fontFamily=Verdana;" parent="1" vertex="1">
          <mxGeometry x="1444.03" y="263" width="142" height="89" as="geometry" />
        </mxCell>
        <mxCell id="7d933b09d9755ecc-33" value="&lt;div&gt;&lt;span dir=&quot;ltr&quot; role=&quot;presentation&quot; style=&quot;left: 139.943px; top: 571.2px; font-size: 14.944px; font-family: monospace; transform: scaleX(0.871733);&quot;&gt;VM 2&lt;/span&gt;&lt;span dir=&quot;ltr&quot; role=&quot;presentation&quot; style=&quot;left: 171.326px; top: 571.2px; font-size: 14.944px; font-family: monospace;&quot;&gt; &lt;/span&gt;&lt;span dir=&quot;ltr&quot; role=&quot;presentation&quot; style=&quot;left: 175.417px; top: 568.717px; font-size: 18.1818px; font-family: sans-serif; transform: scaleX(0.812926);&quot;&gt;(web_server) Freebsd 12&lt;/span&gt;&lt;/div&gt;&lt;div&gt;-&lt;span dir=&quot;ltr&quot; role=&quot;presentation&quot; style=&quot;left: 179.943px; top: 603.396px; font-size: 18.1818px; font-family: sans-serif; transform: scaleX(0.798389);&quot;&gt;network card&lt;/span&gt;&lt;/div&gt;" style="verticalLabelPosition=bottom;aspect=fixed;html=1;verticalAlign=top;strokeColor=none;shape=mxgraph.citrix.users;rounded=0;shadow=0;comic=0;fontFamily=Verdana;" parent="1" vertex="1">
          <mxGeometry x="1478" y="272.5" width="82.09" height="70" as="geometry" />
        </mxCell>
        <mxCell id="7d933b09d9755ecc-34" value="" style="verticalLabelPosition=bottom;aspect=fixed;html=1;verticalAlign=top;strokeColor=none;shape=mxgraph.citrix.tower_server;rounded=0;shadow=0;comic=0;fontFamily=Verdana;" parent="1" vertex="1">
          <mxGeometry x="1490" y="140" width="65" height="85" as="geometry" />
        </mxCell>
        <mxCell id="7d933b09d9755ecc-36" value="" style="ellipse;whiteSpace=wrap;html=1;rounded=0;shadow=0;comic=0;strokeWidth=1;fontFamily=Verdana;" parent="1" vertex="1">
          <mxGeometry x="514" y="666" width="142" height="96" as="geometry" />
        </mxCell>
        <mxCell id="7d933b09d9755ecc-37" value="&lt;div&gt;&lt;span dir=&quot;ltr&quot; role=&quot;presentation&quot; style=&quot;left: 130.853px; top: 638.072px; font-size: 18.1818px; font-family: monospace;&quot;&gt;&lt;/span&gt;&lt;span dir=&quot;ltr&quot; role=&quot;presentation&quot; style=&quot;left: 139.943px; top: 640.555px; font-size: 14.944px; font-family: monospace; transform: scaleX(0.871733);&quot;&gt;VM 3&lt;/span&gt;&lt;span dir=&quot;ltr&quot; role=&quot;presentation&quot; style=&quot;left: 171.326px; top: 640.555px; font-size: 14.944px; font-family: monospace;&quot;&gt; &lt;/span&gt;&lt;span dir=&quot;ltr&quot; role=&quot;presentation&quot; style=&quot;left: 175.417px; top: 638.072px; font-size: 18.1818px; font-family: sans-serif; transform: scaleX(0.844278);&quot;&gt;(employee-client)&lt;/span&gt;&lt;/div&gt;&lt;div&gt;-&lt;span dir=&quot;ltr&quot; role=&quot;presentation&quot; style=&quot;left: 179.943px; top: 603.396px; font-size: 18.1818px; font-family: sans-serif; transform: scaleX(0.798389);&quot;&gt;network card&lt;/span&gt;&lt;/div&gt;&lt;div&gt;&lt;span dir=&quot;ltr&quot; role=&quot;presentation&quot; style=&quot;left: 175.417px; top: 638.072px; font-size: 18.1818px; font-family: sans-serif; transform: scaleX(0.844278);&quot;&gt;&lt;/span&gt;&lt;/div&gt;" style="verticalLabelPosition=bottom;aspect=fixed;html=1;verticalAlign=top;strokeColor=none;shape=mxgraph.citrix.users;rounded=0;shadow=0;comic=0;fontFamily=Verdana;" parent="1" vertex="1">
          <mxGeometry x="552.75" y="700" width="64.5" height="55" as="geometry" />
        </mxCell>
        <mxCell id="7d933b09d9755ecc-38" value="" style="verticalLabelPosition=bottom;aspect=fixed;html=1;verticalAlign=top;strokeColor=none;shape=mxgraph.citrix.tower_server;rounded=0;shadow=0;comic=0;fontFamily=Verdana;" parent="1" vertex="1">
          <mxGeometry x="550" y="570" width="65" height="85" as="geometry" />
        </mxCell>
        <mxCell id="7d933b09d9755ecc-39" style="edgeStyle=none;rounded=0;html=1;labelBackgroundColor=none;startFill=0;endArrow=block;endFill=1;strokeColor=#0000FF;strokeWidth=1;fontFamily=Verdana;fontSize=12;" parent="1" source="7d933b09d9755ecc-32" target="7d933b09d9755ecc-15" edge="1">
          <mxGeometry relative="1" as="geometry">
            <mxPoint x="1444.054" y="261.1399999999999" as="sourcePoint" />
          </mxGeometry>
        </mxCell>
        <mxCell id="7d933b09d9755ecc-40" style="edgeStyle=none;rounded=0;html=1;exitX=1;exitY=0;labelBackgroundColor=none;startFill=0;endArrow=block;endFill=1;strokeColor=#0000FF;strokeWidth=1;fontFamily=Verdana;fontSize=12;exitDx=0;exitDy=0;" parent="1" source="7d933b09d9755ecc-36" target="7d933b09d9755ecc-15" edge="1">
          <mxGeometry relative="1" as="geometry" />
        </mxCell>
      </root>
    </mxGraphModel>
  </diagram>
</mxfile>
